<svg width="44" height="30" viewBox="0 0 44 30" fill="none" xmlns="http://www.w3.org/2000/svg">
<path d="M42.5898 0.692871H1.12539C0.503096 0.692871 0 1.19674 0 1.81826V27.8972C0 28.5187 0.503096 29.0234 1.12539 29.0234H42.5898C43.2121 29.0234 43.7152 28.5195 43.7152 27.898V1.81826C43.7152 1.19674 43.2121 0.692871 42.5898 0.692871ZM10.4365 14.4359C9.82043 14.8895 8.96285 15.1155 7.85449 15.117H7.59598C7.39706 15.117 7.20279 15.2734 7.16177 15.4607L6.85062 16.8059C6.8065 16.9978 6.61223 17.1511 6.41563 17.1511H5.51006C5.31347 17.1511 5.1904 16.9932 5.23684 16.8059L6.51006 11.2618C6.5565 11.0714 6.74923 10.9189 6.94582 10.9158L8.83746 10.915C9.24613 10.9189 9.59985 10.9436 9.90635 10.9994C10.2082 11.0566 10.4714 11.1526 10.6943 11.2888C10.9079 11.4235 11.0805 11.6039 11.1889 11.8221C11.3096 12.0404 11.363 12.3136 11.363 12.6387C11.363 13.3817 11.0573 13.9823 10.4365 14.4359ZM16.0573 13.7285L16.0232 13.9614L15.3622 16.819C15.3235 16.9909 15.1533 17.1371 14.9729 17.158L14.9605 17.1627H14.8297H14.1347H14.1184L14.1153 17.1596C13.9427 17.1433 13.8359 16.997 13.8731 16.8206V16.819L13.8746 16.8136L13.9087 16.6681L13.904 16.6627L13.5627 16.8879L13.1912 17.0954L12.7531 17.2455C12.6184 17.278 12.4288 17.2974 12.1842 17.2974C11.798 17.2974 11.4745 17.1913 11.2299 16.9723C10.9868 16.7486 10.8615 16.463 10.8615 16.1132C10.8615 15.7416 10.9474 15.4274 11.12 15.1658C11.2988 14.9057 11.5542 14.7029 11.8994 14.5512C12.2206 14.4049 12.6068 14.2966 13.048 14.2354C13.4985 14.1704 13.87 14.1232 14.3847 14.0907L14.5147 14.0102L14.531 13.8825C14.531 13.6859 14.4396 13.5505 14.2577 13.4707C14.0735 13.3933 13.7964 13.3546 13.4342 13.3546C13.1881 13.3515 12.8785 13.4019 12.5851 13.4684C12.2779 13.5381 12.1935 13.5837 12.0433 13.6286C11.9737 13.6526 11.8057 13.6642 11.8684 13.3732L11.9791 12.9173C11.9791 12.9173 12.0333 12.5729 12.3777 12.4978C12.5441 12.4607 12.5704 12.4537 12.8421 12.4119C13.2098 12.3554 13.5735 12.3268 13.9381 12.3268C14.6757 12.3268 15.2159 12.4227 15.5573 12.6155C15.9002 12.8074 16.0751 13.1077 16.0735 13.511L16.0573 13.7285ZM17.5132 19.3585L16.5751 19.3601C16.38 19.3601 16.3158 19.2053 16.435 19.0149L17.2376 17.6155C17.2376 17.6155 17.3019 17.5358 17.2446 17.0791C17.1207 16.254 16.5046 12.7463 16.5046 12.7463C16.4598 12.5566 16.5805 12.4011 16.7755 12.4011L17.5875 12.3995C17.8359 12.3995 18.0356 12.5628 18.0805 12.7548L18.4845 15.1875L18.6347 15.189C18.7608 14.9653 20.0581 12.7393 20.0581 12.7393C20.1819 12.552 20.4327 12.3933 20.6277 12.3933C20.6277 12.3933 21.5 12.3957 21.7144 12.3933C22.0364 12.3887 21.6896 12.9104 21.6896 12.9104L18.0797 19.0149C17.9636 19.2053 17.7067 19.3585 17.5132 19.3585ZM26.8916 14.4599C26.2732 14.9111 25.4118 15.1395 24.3034 15.1395H24.0449C23.8498 15.1364 23.6548 15.295 23.6099 15.4823L23.3034 16.8299C23.2585 17.0179 23.0604 17.1727 22.8684 17.1704L21.9605 17.1727C21.7678 17.1735 21.6409 17.0172 21.6873 16.8291L22.9613 11.2819C23.0077 11.0938 23.1981 10.9405 23.3947 10.9375L25.2887 10.9359C25.695 10.9375 26.0526 10.9661 26.3529 11.0195C26.6587 11.0752 26.9218 11.1712 27.1416 11.3082C27.3576 11.4467 27.5271 11.624 27.6401 11.8438C27.7562 12.0605 27.8127 12.3345 27.8142 12.6596C27.8142 13.4018 27.5039 14.0009 26.8916 14.4599ZM32.5093 13.7323L32.476 13.9669L31.8135 16.8221C31.7763 16.9947 31.6053 17.141 31.4272 17.1627L31.4149 17.1673H31.2848C31.0975 17.1673 30.7028 17.1673 30.589 17.1673H30.5728L30.5712 17.1627C30.3955 17.1464 30.2872 17.0009 30.3297 16.8237L30.3282 16.8214L30.332 16.8183L30.3622 16.6727L30.3568 16.6658L30.0178 16.8941L29.644 17.1008L29.2067 17.2486C29.072 17.2834 28.8816 17.2981 28.6393 17.302C28.2523 17.302 27.9319 17.1921 27.6858 16.9746C27.4412 16.7532 27.315 16.4661 27.315 16.1147C27.315 15.7455 27.4009 15.4297 27.5743 15.1697C27.7515 14.9096 28.0108 14.7076 28.3529 14.5543C28.6765 14.4073 29.065 14.3005 29.5039 14.2385C29.9512 14.1735 30.3228 14.1263 30.8413 14.0946L30.9714 14.0125L30.9853 13.8848C30.9853 13.6898 30.8955 13.5528 30.7113 13.4738C30.5271 13.3957 30.25 13.357 29.8893 13.357C29.6416 13.3554 29.3313 13.4049 29.0387 13.4707C28.733 13.5419 28.6502 13.5861 28.5008 13.631C28.4249 13.6534 28.2616 13.6666 28.3235 13.3755L28.4342 12.9204C28.4342 12.9204 28.4861 12.5752 28.832 12.5009C29 12.4645 29.0271 12.456 29.298 12.4166C29.6633 12.3577 30.0294 12.3291 30.394 12.3291C31.1285 12.3291 31.668 12.4266 32.0124 12.6193C32.3576 12.8113 32.5302 13.1101 32.5302 13.5133L32.5093 13.7323ZM35.4118 11.3275L34.1981 16.8237L34.1556 16.8887C34.0836 17.0435 33.9303 17.1689 33.7639 17.1689H32.9218L32.9063 17.1495C32.7461 17.1248 32.6416 16.9955 32.6796 16.8268L32.678 16.8229L32.7144 16.6642L33.8491 11.5079L33.8893 11.3283L33.935 11.2579C34.0085 11.1062 34.1587 10.9831 34.3251 10.9831H35.1355C35.3328 10.9831 35.4512 11.1371 35.4094 11.326L35.4118 11.3275ZM37.0201 10.7331H36.7167V11.1364L36.719 11.2447L36.7399 11.3175L36.7879 11.3639L36.8808 11.3786L36.9567 11.3678L37.0132 11.3508H37.0201V11.4831L36.9296 11.5009L36.8437 11.5079L36.6378 11.4344L36.5673 11.2022V10.7331H36.4652V10.6077H36.5673V10.3562H36.7167V10.6077H37.0201V10.7331ZM38.4868 10.9181V11.4885H38.3406V10.9854L38.3313 10.8779L38.3119 10.7927L38.2608 10.7424L38.1625 10.7246L38.0395 10.7563L37.9133 10.8361L37.9156 10.8794L37.9172 10.9258V11.4901H37.7701V10.987L37.7639 10.8779L37.743 10.7935L37.6935 10.7432L37.5937 10.7254L37.4721 10.7556L37.3491 10.8322V11.4901H37.2036V10.6085H37.3491V10.7068L37.4899 10.617L37.6355 10.5845L37.7887 10.6209L37.8831 10.7262L38.0457 10.617L38.2043 10.5845L38.4187 10.672L38.4884 10.9181H38.4868Z" fill="white"/>
</svg>
