<svg width="45" height="30" viewBox="0 0 45 30" fill="none" xmlns="http://www.w3.org/2000/svg">
<path d="M43.3514 0.692871H1.887C1.26471 0.692871 0.761612 1.19674 0.761612 1.81826V27.898C0.761612 28.5195 1.26471 29.0234 1.887 29.0234H43.3514C43.9737 29.0234 44.4768 28.5195 44.4768 27.898V1.81826C44.4768 1.19674 43.9737 0.692871 43.3514 0.692871ZM41.1517 13.3206L40.5488 13.8647L40.0046 13.2602L40.6084 12.7161L41.1517 13.3206ZM38.0464 12.7935L37.2299 11.8864L38.137 11.0698L38.9536 11.9769L38.0464 12.7935ZM38.9721 12.8933L39.7895 13.7997L38.8824 14.6162L38.0658 13.7099L38.9721 12.8933ZM37.3088 12.593L36.0998 13.6813L35.0124 12.4723L36.2214 11.384L37.3088 12.593ZM37.0851 13.4467L38.1734 14.6557L36.9644 15.7432L35.8762 14.5342L37.0851 13.4467ZM37.945 15.5365L39.0333 16.7455L37.8243 17.8353L36.7361 16.6263L37.945 15.5365ZM38.8406 15.6255L39.7477 14.8082L40.565 15.7153L39.6579 16.5319L38.8406 15.6255ZM40.3808 11.5234L39.7763 12.0675L39.2322 11.463L39.8367 10.9189L40.3808 11.5234ZM7.10062 16.8748H6.47369L5.68499 13.9808H5.64397L4.87849 16.8748H4.25155L3.31192 12.7633H3.96208L4.61146 15.8314H4.65248L5.40635 12.7633H5.9226L6.7291 15.8314H6.77013L7.36223 12.7633H8.04102L7.10062 16.8748ZM10.6981 15.5365H8.80805C8.80805 16.2316 9.09211 16.5404 9.68963 16.5404C10.0023 16.5404 10.2926 16.4297 10.6115 16.2385V16.6789C10.3506 16.8291 10.0023 16.946 9.58514 16.946C8.61068 16.946 8.21053 16.343 8.21053 15.4258C8.21053 14.5443 8.65712 13.9073 9.52709 13.9073C10.2523 13.9073 10.6989 14.3771 10.6989 15.3237L10.6981 15.5365ZM12.3568 16.9452C12.0495 16.9452 11.5735 16.8461 11.2252 16.6611V12.6132L11.8282 12.4684V14.1217C12.0031 14.0288 12.298 13.9073 12.6122 13.9073C13.3313 13.9073 13.7198 14.4065 13.7198 15.3345C13.7198 16.4189 13.1981 16.9452 12.3568 16.9452ZM18.3498 16.8748H18.3483H17.7221V13.8933H17.6703L16.4868 16.8748H16.1161L14.9327 13.963H14.8808V16.8748H14.3591V12.7633H15.0604L16.3599 16.0056H16.3893L17.6308 12.7633H18.3498V16.8748ZM20.3096 16.9452C19.5155 16.9452 18.9868 16.4166 18.9868 15.4251C18.9868 14.4096 19.5441 13.9065 20.3096 13.9065C21.0751 13.9065 21.6324 14.4111 21.6324 15.4251C21.6324 16.4189 21.1045 16.9452 20.3096 16.9452ZM24.6192 16.8748H24.0163V14.908C24.0163 14.4506 23.791 14.3693 23.4938 14.3693C23.2616 14.3693 22.9659 14.4738 22.7864 14.5783V16.8748H22.1834V14.3345C22.4443 14.1782 22.9954 13.9057 23.6625 13.9057C24.3584 13.9057 24.6192 14.1782 24.6192 14.7757V16.8748ZM27.6471 15.5365H25.7562C25.7562 16.2316 26.0402 16.5404 26.6393 16.5404C26.952 16.5404 27.2423 16.4297 27.5604 16.2385V16.6789C27.2988 16.8291 26.952 16.946 26.5333 16.946C25.5588 16.946 25.1602 16.343 25.1602 15.4258C25.1602 14.5443 25.6068 13.9073 26.476 13.9073C27.202 13.9073 27.6486 14.3771 27.6486 15.3237L27.6471 15.5365ZM29.4737 16.9049C29.1834 17.7045 28.8297 18.1224 28.1641 18.1224V17.6472C28.5588 17.6472 28.8011 17.3345 28.9412 16.9049L27.8282 14.004H28.4659L29.2082 16.1387H29.243L29.904 14.004H30.5248L29.4737 16.9049ZM39.3088 19.2788C38.5697 19.7006 37.7129 19.9413 36.8034 19.9413C34.0039 19.9413 31.7198 17.658 31.7198 14.8585C31.7198 12.059 34.0039 9.77491 36.8034 9.77491C37.6006 9.77491 38.3576 9.96067 39.031 10.2904C39.137 10.3407 39.2423 10.3964 39.3468 10.4568L38.8793 10.8755L38.1765 10.1488L36.9899 11.2076L36.2864 10.4382L34.0751 12.4305L35.4923 13.9932L34.935 14.4823L36.3313 16.0466L35.7771 16.5358L37.7724 18.7563L38.9551 17.6666L39.9783 18.8353C39.7755 18.9916 39.5542 19.1402 39.3088 19.2788ZM40.4551 18.3624L39.6378 17.4568L40.5449 16.6395L41.3615 17.5458L40.4551 18.3624ZM41.3204 15.6596L40.7763 15.0551L41.3808 14.511L41.9249 15.1155L41.3204 15.6596Z" fill="white"/>
</svg>
